<?xml version="1.0" encoding="utf-8"?>
<!-- Generator: Adobe Illustrator 27.1.1, SVG Export Plug-In . SVG Version: 6.00 Build 0)  -->
<svg version="1.1" id="Layer_1" xmlns="http://www.w3.org/2000/svg" xmlns:xlink="http://www.w3.org/1999/xlink" x="0px" y="0px"
	 viewBox="0 0 105.2 94.3" style="enable-background:new 0 0 105.2 94.3;" xml:space="preserve">
<style type="text/css">
	.st0{fill:#0FB2DE;}
	.st1{fill:#FFCC00;}
	.st2{fill:#0A0700;}
	.st3{fill:#DA6672;}
	.st4{fill:none;}
</style>
<g>
	<g>
		<g>
			<g>
				<path class="st0" d="M53.7,68.6l14.1-1.4c0,0,6.8-1.1,10.1,0.7c3.3,1.8,12.3,7.9,12.3,7.9L87.8,81l3.2,2.5l-4,6.3L71,82l-13,3.6
					c0,0-11.2,2.5-15.3,1.3c0,0-3.7-0.9-3.9-2.1L53.7,68.6z"/>
			</g>
			<g>
				<path class="st1" d="M15.8,37.1c0,0-1.3,6.2-1,7.8c0.3,1.6,1.1,5.1,1.1,5.1s2.8-0.6,3.9-0.7c1.1-0.1,7.7-0.9,7.7-0.9l-1.9-5
					c0,0,4.9-2.5,4.5-4.3s-1-4-1-4l4.8-4.3c0,0,0.6-1.4-0.3-1.8S29,28.3,29,28.3l-2.3-5.6l-3.9,0.2c0,0-2.8,0.6-3.1,1
					s-4.2,3.2-4.6,3.7c-0.4,0.4-3,2.4-3,2.4s-1,2.6-0.9,2.9c0.1,0.3,1.9,3.5,1.9,3.5L15.8,37.1z"/>
			</g>
			<g>
				<path class="st1" d="M16.8,67.2l0.8,13.1c0,0,0.8,3.4-1.4,3.7s-6.9,0.9-7.6,1.4c-0.7,0.5-2,1.3-0.6,1.7s11.8,0.2,11.8,0.2
					s3.9-0.2,4-2s0.6-18.7,0.6-18.7L16.8,67.2z"/>
			</g>
			<g>
				<path class="st1" d="M54.1,17.1l1.8,0.4c0,0,4.6-0.7,6.3,1.3c1.7,1.9,1.9,7,0.7,8.8s-2.6,3.7-8.6,3s-4.7-9.3-4.7-9.3
					S51.1,17.6,54.1,17.1z"/>
			</g>
		</g>
		<g>
			<g>
				<path class="st2" d="M15.9,50.4c-0.1,0-0.1,0-0.2,0c-0.1-0.1-0.2-0.2-0.3-0.3l-1-4.2c0-0.1-0.6-3.1,0-5.1
					c0.2-0.8,0.5-1.5,0.8-2.1c0.2-0.4,0.3-0.8,0.4-1.1c-0.5,0.2-1.1,0.3-1.7,0.1c-0.4-0.1-0.9-0.5-1.2-1.3c-0.4-1.2-0.9-3.8,0.3-4.9
					c0.7-0.6,1.7-0.6,3,0c0.1,0,0.2,0.1,0.2,0.2c0.2,0.3,0.6,0.8,0.9,0.8c0.3-0.2,0.6-2,0.4-2.6c-0.1-0.8,0.9-4.2,2.2-5.2
					c1.1-0.8,5.7-3,7.8-2.5c0.1,0,0.3,0.1,0.3,0.3c0,0.1,1.1,3.1,1.1,5.4c1.4,0.1,4.7,0.3,5.4,1.5c0.2,0.3,0.2,0.7,0.1,1
					c-0.6,1.6-4,4.1-5,4.9c0.3,1,1.1,3.6,1,4.5c0.1,1.2-3.1,3.2-4.4,3.9c0.2,0.9,1.3,3.7,2.1,4.4c0.1,0.1,0.2,0.3,0.1,0.5
					s-0.2,0.3-0.4,0.3c-0.2,0-3.8,0.8-5.4,0.8c-0.3,0-0.6,0-0.9,0C20,49.6,18,49.6,16,50.5C16,50.4,16,50.4,15.9,50.4z M16.2,36.4
					c0.1,0,0.1,0,0.2,0c0.1,0.1,0.2,0.2,0.3,0.4c0.1,0.8-0.2,1.5-0.6,2.3c-0.2,0.6-0.5,1.2-0.7,1.9c-0.5,1.8,0,4.6,0,4.6l0.9,3.6
					c2-0.8,3.9-0.7,5.4-0.7c0.3,0,0.6,0,0.9,0c1.1,0,3.3-0.4,4.5-0.6c-0.9-1.4-2.1-4.3-1.8-4.8c0.1-0.2,0.3-0.3,0.5-0.3
					c0.6-0.2,4-2.5,4.1-3.2s-0.6-3.1-1-4.5c-0.1-0.2,0-0.4,0.2-0.5c1.2-0.9,4.4-3.4,5-4.7c0-0.1,0-0.1,0-0.1c-0.4-0.6-3-1-5.2-1.1
					c-0.1,0-0.3-0.1-0.3-0.2c-0.1-0.1-0.1-0.2-0.1-0.4c0.2-1.8-0.6-4.4-0.9-5.2c-1.8-0.2-5.5,1.5-6.8,2.4c-1,0.7-1.9,3.7-1.8,4.2
					c0.1,0.5,0.1,3.4-1.2,3.7c-0.9,0.2-1.6-0.7-1.8-1.1c-0.6-0.3-1.4-0.5-1.9-0.1c-0.7,0.6-0.6,2.5-0.1,3.9c0.1,0.4,0.3,0.6,0.6,0.7
					c0.6,0.2,1.4-0.2,1.6-0.4C16,36.4,16.1,36.4,16.2,36.4z"/>
			</g>
			<g>
				<path class="st3" d="M27.8,48.4c0,0,4.6,2.3,8.4,7.9s11.3,12.1,17.7,12.3c0,0-2.8,10.4-13.1,15l-2.4,1.2c0,0-11.3-6.6-13.9-10
					V68l-13.3,0.2c0,0,0.2-15.3,2.5-16.8c2.2-1.5,1.5-1.5,3.2-1.9C18.6,49.2,26.6,48.9,27.8,48.4z"/>
				<path class="st2" d="M38.4,85.3c-0.1,0-0.2,0-0.2-0.1c-0.5-0.3-11.4-6.7-14.1-10.1C24,75.1,24,75,24,74.9v-6.4l-12.8,0.2
					c-0.1,0-0.2,0-0.3-0.1s-0.1-0.2-0.1-0.3c0-2.6,0.4-15.6,2.7-17.2c0.8-0.5,1.2-0.9,1.5-1.1c0.5-0.4,0.7-0.6,1.9-0.8
					c0.8-0.2,2.7-0.3,4.8-0.5c2.4-0.2,5.5-0.4,6-0.7c0.1-0.1,0.3-0.1,0.4,0c0.2,0.1,4.7,2.4,8.6,8C40.6,61.7,48,67.9,54,68.1
					c0.1,0,0.3,0.1,0.4,0.2c0.1,0.1,0.1,0.3,0.1,0.4S51.6,79.4,41.2,84l-2.4,1.2C38.6,85.3,38.5,85.3,38.4,85.3z M24.9,74.7
					c2.6,3,11.9,8.7,13.5,9.6l2.2-1.1c8.6-3.9,11.9-12,12.6-14.2c-6.2-0.6-13.4-6.6-17.5-12.5c-3.3-4.8-7.2-7.2-8.1-7.6
					c-0.9,0.3-3,0.4-6.1,0.7c-2,0.2-3.9,0.3-4.6,0.5c-1,0.2-1,0.3-1.5,0.6c-0.3,0.2-0.7,0.6-1.6,1.2c-1.4,0.9-2.1,10-2.2,15.9
					l12.8-0.2c0.1,0,0.2,0,0.3,0.1c0.1,0.1,0.1,0.2,0.1,0.3L24.9,74.7L24.9,74.7z"/>
			</g>
			<g>
				<path class="st2" d="M87.5,80.8c-0.1,0-0.2,0-0.2-0.1c-0.2-0.1-0.3-0.4-0.2-0.6l2.3-4.1c-1.9-1.4-11.3-8-14.2-8.5
					C72,67,54.1,69,53.9,69.1c-0.3,0-0.5-0.2-0.5-0.4c0-0.3,0.2-0.5,0.4-0.5C54.6,68,72,66,75.4,66.6s14.4,8.6,14.9,8.9
					c0.2,0.1,0.2,0.4,0.1,0.6l-2.6,4.4C87.8,80.7,87.7,80.8,87.5,80.8z"/>
			</g>
			<g>
				<path class="st2" d="M87,90.2c-0.1,0-0.1,0-0.2-0.1c-7-3.7-14.9-7.6-15.8-7.7c-0.4,0-2,0.5-3.9,1c-4.4,1.3-11.7,3.5-17.7,4.1
					c-8.9,0.9-11-2.4-11.1-2.6c-0.1-0.2-0.1-0.5,0.2-0.6c0.2-0.1,0.5-0.1,0.6,0.2c0,0.1,2,2.9,10.2,2.1c5.9-0.6,13.2-2.7,17.5-4
					c2.4-0.7,3.6-1.1,4.1-1.1l0,0c1.5,0,12.7,5.9,15.9,7.6l3.5-5.6C84.6,79,76.1,72.5,75,72c-1.3-0.5-3.7-0.8-6.3-0.7
					C66.5,71.4,57,71.1,56.6,71c-0.3,0-0.5-0.2-0.5-0.5s0.2-0.4,0.5-0.5c0.1,0,9.8,0.3,12,0.3c2.7-0.1,5.2,0.2,6.6,0.8
					c1.8,0.8,14.6,10.9,16.1,12c0.2,0.1,0.2,0.4,0.1,0.6l-4,6.3C87.4,90.1,87.2,90.2,87,90.2z"/>
			</g>
			<g>
				<path class="st2" d="M24.5,68.4h-0.1c-0.2-0.1-0.4-0.3-0.3-0.6c0,0,1-3.7-0.1-10.2c-1-6.3-5.8-7.7-6-7.8s-0.4-0.3-0.3-0.6
					c0.1-0.2,0.3-0.4,0.6-0.3c0.2,0.1,5.6,1.6,6.7,8.5c1.1,6.8,0.1,10.5,0.1,10.6C24.9,68.3,24.7,68.4,24.5,68.4z"/>
			</g>
			<g>
				<path class="st2" d="M12.1,87.8c-2.2,0-3.9-0.1-4.6-0.4c-0.5-0.2-0.8-0.6-0.8-1c0-0.8,1.2-1.4,3.3-2.1c0.7-0.2,2-0.4,3.3-0.5
					s3.5-0.3,3.8-0.7c0.2-0.8-0.3-9.7-0.7-15.1c0-0.1,0-0.3,0.1-0.3c0.1-0.1,0.2-0.1,0.3-0.2l7.6-0.1c0.1,0,0.3,0,0.3,0.1
					c0.1,0.1,0.1,0.2,0.1,0.3c0,0.1-0.5,14.3-0.5,16.6c0,0.8-0.3,1.6-0.9,2.1c-1.1,0.9-2.8,1.1-3.7,1c-0.4,0-1.7,0-3.3,0
					C15,87.8,13.4,87.8,12.1,87.8z M7.7,86.5c0,0,0.1,0.1,0.2,0.1c1,0.4,5.8,0.3,8.7,0.2c1.9,0,3-0.1,3.4,0c0.7,0.1,2.1,0,2.9-0.8
					c0.4-0.4,0.6-0.8,0.6-1.4c0-2.1,0.4-13.6,0.5-16.1l-6.7,0.1c0.3,4.6,1,14.3,0.6,15.1c-0.3,0.7-1.6,0.9-4.5,1.2
					c-1.2,0.1-2.5,0.2-3.1,0.4C8.4,85.9,7.9,86.3,7.7,86.5z"/>
			</g>
			<g>
				<path class="st2" d="M27.9,23.5c0,0,2.8-4.5,1.2-8.4c0,0-1.1,1.4-2.1,1.4c0,0,0.5-2.1-0.5-2.9c0,0-10.3,4.6-14.4,5.7
					c-4.1,1.1-6.3,2.1-6.7,5.1c-0.5,2.9,2.3,15.4,3.4,17.2s2.4,5.6,6.3,5.1c0,0-0.8-4.2,0.2-6.8c0.9-2.6,0.9-3,0.9-3s-2.1,1-2.9-0.5
					c-0.8-1.6-0.6-4.4,0.6-4.7s2,0.3,2.8,0.8s1.3,0.4,1.4-0.5c0.1-0.9,0.2-3,0.6-4.1s0.8-2.5,2.1-3.1s3.7-1.8,4.9-2
					C26.8,22.6,27.6,22.4,27.9,23.5z"/>
				<path class="st2" d="M14.4,47.1c-3.1,0-4.5-2.7-5.5-4.5c-0.2-0.3-0.3-0.6-0.5-0.9c-1.1-1.9-4-14.5-3.5-17.5
					c0.5-3.1,2.9-4.3,7.1-5.4c4-1.1,14.2-5.6,14.3-5.6c0.2-0.1,0.3,0,0.5,0.1c0.8,0.6,0.8,1.8,0.8,2.6c0.4-0.2,0.8-0.7,1.1-1
					c0.1-0.1,0.3-0.2,0.4-0.2c0.2,0,0.3,0.1,0.4,0.3c1.7,4.1-1.1,8.6-1.2,8.8C28.2,23.9,28,24,27.8,24s-0.3-0.2-0.4-0.3
					c-0.2-0.6-0.3-0.6-1.5-0.4h-0.3c-1,0.1-3.1,1.1-4.8,1.9c-1,0.5-1.4,1.6-1.8,2.6v0.3c-0.2,0.6-0.3,1.8-0.4,2.7
					c0,0.5-0.1,1-0.1,1.3c-0.1,0.6-0.3,0.9-0.7,1.1c-0.5,0.2-1.1-0.1-1.5-0.3c-0.8-0.5-1.5-1-2.4-0.7c-0.2,0.1-0.4,0.3-0.4,0.5
					c-0.4,0.9-0.3,2.5,0.2,3.5c0.6,1.1,2.2,0.4,2.3,0.3c0.1-0.1,0.3-0.1,0.4,0s0.2,0.2,0.2,0.4c0,0.3-0.3,1.4-1,3.1
					c-0.9,2.4-0.2,6.5-0.2,6.6s0,0.3-0.1,0.4c-0.1,0.1-0.2,0.2-0.3,0.2C14.9,47.1,14.7,47.1,14.4,47.1z M26.4,14.2
					c-1.8,0.8-10.5,4.6-14.2,5.6c-4,1.1-6,2-6.4,4.7c-0.4,2.8,2.4,15.2,3.4,16.9c0.2,0.3,0.3,0.6,0.5,0.9c0.9,1.7,2.2,4,4.8,4
					c-0.2-1.2-0.5-4.4,0.3-6.5c0.4-1,0.6-1.6,0.7-2.1c-0.9,0.2-2.1,0.1-2.7-1c-0.6-1.2-0.7-3.2-0.2-4.3c0.3-0.7,0.7-0.9,1-1
					c1.3-0.3,2.2,0.3,3,0.8c0.5,0.3,0.7,0.3,0.7,0.3s0.1-0.1,0.1-0.4c0.1-0.3,0.1-0.7,0.1-1.2c0.1-1,0.2-2.2,0.5-2.9l0.1-0.3
					c0.4-1.1,0.9-2.4,2.2-3.1c1.1-0.5,3.7-1.8,5.1-2h0.3c0.7-0.1,1.5-0.2,2,0.3c0.6-1.3,1.7-4,1-6.6c-0.5,0.4-1.2,1-1.9,1
					c-0.1,0-0.3-0.1-0.4-0.2s-0.1-0.3-0.1-0.4C26.7,16,26.8,14.7,26.4,14.2z"/>
			</g>
			<g>
				<circle class="st2" cx="26.3" cy="26.8" r="3.9"/>
			</g>
			<g>
				<path class="st2" d="M16.9,30.2c-0.2,0-0.3-0.1-0.4-0.3c-0.1-0.2,0-0.5,0.2-0.6c2.8-1.3,7.4-1.5,7.6-1.5c0.3,0,0.5,0.2,0.5,0.4
					s-0.2,0.5-0.4,0.5c0,0-4.6,0.2-7.2,1.4C17.1,30.2,17,30.2,16.9,30.2z"/>
			</g>
			<g>
				<path class="st4" d="M45.3,81.4c-0.1,0-0.1,0-0.2,0c-13.4-5.1-20.5-17-20.6-17.1c-0.1-0.2-0.1-0.5,0.2-0.6
					c0.2-0.1,0.5-0.1,0.6,0.2c0.1,0.1,7.1,11.7,20.1,16.7c0.2,0.1,0.4,0.4,0.3,0.6C45.6,81.3,45.5,81.4,45.3,81.4z"/>
			</g>
			<g>
				<path class="st2" d="M11.2,68.2c0,0,2,1,5.7,1.5l-0.1-1.6L11.2,68.2z"/>
				<path class="st2" d="M17,70.2C16.9,70.2,16.9,70.2,17,70.2c-3.8-0.6-5.8-1.5-5.9-1.6c-0.2-0.1-0.3-0.3-0.3-0.5s0.2-0.4,0.4-0.4
					l5.6-0.1c0.3,0,0.5,0.2,0.5,0.4l0.1,1.6c0,0.1,0,0.3-0.1,0.4C17.2,70.2,17.1,70.2,17,70.2z M13.9,68.6c0.7,0.2,1.6,0.4,2.5,0.6
					v-0.6H13.9z"/>
			</g>
			<g>
				<path class="st2" d="M89.7,76.5c0,0,6.6-5.7,8.1-4.3S91,83.5,91,83.5l-3.7-2.9L89.7,76.5z"/>
			</g>
			<g>
				<path class="st2" d="M90.4,84.4c0,0,7.9-4.4,9.6-4s1.1,2.3,0.6,3.1c-0.5,0.8-7.8,8.3-9.2,8.7s-4.1-2.8-4.1-2.8L90.4,84.4z"/>
			</g>
			<g>
				<path class="st2" d="M56,31.3c-2.3,0-4.4-0.6-5.5-2.3c-1.7-2.7-2.3-7.7-0.5-9.8c1.9-2.3,4.1-3.1,6.6-2.4h0.1
					c1.6-0.2,3.2,0.1,4.5,0.7c1.3,0.7,2.2,1.7,2.5,2.9c0.9,3.5,0.1,9-3.3,10.1C59.1,31,57.5,31.3,56,31.3z M54.5,17.5
					c-1.3,0.1-2.5,0.9-3.7,2.3c-1.4,1.6-1.1,6.2,0.5,8.7c1.5,2.4,6.2,2,8.9,1.2c2.8-0.9,3.5-6,2.7-9c-0.3-1.2-1.3-2-2-2.3
					c-1.6-0.8-3.9-0.9-5.6-0.3c-3,1.1-1.9,5.8-1.7,6.7c0.2,0.9,1.4,1.5,2.8,1.5l0,0c1.2,0,2.7-0.5,3.1-2c0.2-0.7,0.2-1.2-0.1-1.6
					c-0.4-0.5-1.5-0.5-1.9-0.4c-0.3,0-0.5-0.1-0.5-0.4s0.1-0.5,0.4-0.5c0.1,0,1.8-0.3,2.7,0.7c0.5,0.6,0.6,1.4,0.3,2.4
					c-0.5,1.6-2,2.7-4.1,2.6c-1.8,0-3.3-0.9-3.7-2.2C52,22.2,52.1,18.9,54.5,17.5z"/>
			</g>
			<g>
				<path class="st2" d="M57.5,15.9L57.5,15.9c-0.3,0-0.5-0.2-0.5-0.5l0.2-3.9c0-0.3,0.2-0.4,0.5-0.4s0.5,0.2,0.4,0.5L58,15.5
					C58,15.7,57.8,15.9,57.5,15.9z"/>
			</g>
			<g>
				<path class="st2" d="M65,20.6c-0.1,0-0.2,0-0.3-0.1c-0.2-0.2-0.2-0.5,0-0.7l2.2-2.1c0.2-0.2,0.5-0.2,0.7,0s0.2,0.5,0,0.7
					l-2.2,2.1C65.2,20.5,65.1,20.6,65,20.6z"/>
			</g>
			<g>
				<path class="st2" d="M69.1,26.8H65c-0.3,0-0.5-0.2-0.5-0.5s0.2-0.5,0.5-0.5h4.1c0.3,0,0.5,0.2,0.5,0.5
					C69.6,26.6,69.3,26.8,69.1,26.8z"/>
			</g>
			<g>
				<path class="st2" d="M63.5,35.5c-0.1,0-0.2,0-0.3-0.1l-2.2-2c-0.2-0.2-0.2-0.5,0-0.7s0.5-0.2,0.7,0l2.2,2c0.2,0.2,0.2,0.5,0,0.7
					C63.8,35.5,63.6,35.5,63.5,35.5z"/>
			</g>
			<g>
				<path class="st2" d="M53,37.3c-0.1,0-0.1,0-0.2,0c-0.2-0.1-0.3-0.4-0.2-0.6l1.3-3c0.1-0.2,0.4-0.3,0.6-0.2
					c0.2,0.1,0.3,0.4,0.2,0.6l-1.3,3C53.4,37.2,53.2,37.3,53,37.3z"/>
			</g>
			<g>
				<path class="st2" d="M46.6,31.8c-0.2,0-0.3-0.1-0.4-0.2c-0.1-0.2-0.1-0.5,0.2-0.6l2.6-1.6c0.2-0.1,0.5-0.1,0.6,0.2
					c0.1,0.2,0.1,0.5-0.2,0.6l-2.6,1.6C46.7,31.8,46.7,31.8,46.6,31.8z"/>
			</g>
			<g>
				<path class="st2" d="M45.5,24.4h-3.2c-0.3,0-0.5-0.2-0.5-0.5s0.2-0.5,0.5-0.5h3.2c0.3,0,0.5,0.2,0.5,0.5S45.8,24.4,45.5,24.4z"
					/>
			</g>
			<g>
				<path class="st2" d="M49.1,17.3c-0.1,0-0.2,0-0.3-0.1l-2.1-2.3c-0.2-0.2-0.2-0.5,0-0.7s0.5-0.2,0.7,0l2.1,2.3
					c0.2,0.2,0.2,0.5,0,0.7C49.4,17.3,49.2,17.3,49.1,17.3z"/>
			</g>
		</g>
	</g>
	<g>
		<path class="st2" d="M28.3,38c-0.5,0-1.1-0.1-1.6-0.3c-0.2-0.1-0.4-0.4-0.3-0.6c0.1-0.2,0.4-0.4,0.6-0.3c1,0.4,2.4,0.1,2.4,0.1
			c0.3-0.1,0.5,0.1,0.6,0.4c0.1,0.3-0.1,0.5-0.4,0.6C29.6,37.9,29.1,38,28.3,38z"/>
	</g>
</g>
</svg>
