<?xml version="1.0" encoding="utf-8"?>
<!-- Generator: Adobe Illustrator 27.1.1, SVG Export Plug-In . SVG Version: 6.00 Build 0)  -->
<svg version="1.1" id="Layer_1" xmlns="http://www.w3.org/2000/svg" xmlns:xlink="http://www.w3.org/1999/xlink" x="0px" y="0px"
	 viewBox="0 0 105.2 94.3" style="enable-background:new 0 0 105.2 94.3;" xml:space="preserve">
<style type="text/css">
	.st0{fill:#DA6672;}
	.st1{fill:#FFCC00;}
	.st2{fill:#0A0700;}
</style>
<g>
	<g>
		<path class="st0" d="M19.8,24.6l1.1-8.2l2.9,4.3l5.1-6.3L29,22l6.6-2l-3.2,6.7l5.3,1.3l-4.9,3.7l3.6,1.9L29,35.2
			c0,0-0.3-4.5-2.7-6.4S19.8,24.6,19.8,24.6z"/>
	</g>
	<g>
		<path class="st1" d="M27.2,40c0,0-0.9-8.9-6.4-11.8S9,29.6,7.5,31.8S1,41.3,4.4,52.7s11.2,17.8,18.5,22c7.3,4.2,20.8,5.1,29.1,2.4
			c8.4-2.7,11.8-12.6,10.4-15.5c-1.4-2.8-2.6-7.4-10.8-8c0,0-8.3,1.1-8.4,8.9l1.1,4.1c0,0-11.4,1.9-19.9-4.8c0,0-6.4-5.5-7.5-13.6
			C17.1,48.1,27.4,46.1,27.2,40z"/>
	</g>
	<g>
		<g>
			<g>
				<path class="st2" d="M40.5,79.2c-7.4,0-16.5-1.9-24.8-8.8c-19.3-15.9-11-35-10.6-35.8c2.1-4.7,6.8-7.9,11.4-7.9
					c0.1,0,0.1,0,0.2,0c4.4,0.1,7.9,2.9,9.9,7.9c1.4,3.5,1.4,6.4,0,8.8c-2.2,3.7-7.3,4.8-8.9,5C22.2,68,40.1,66.7,43.8,66.2
					c-2.7-5.8,1.7-10.3,1.7-10.4c2.3-1.9,4.8-2.8,7.4-2.7c2.9,0.1,5.6,1.4,7.5,3.7c2,2.5,3,5.7,2.5,8.9c-1.1,7.2-8.4,10.9-8.5,11
					C52.6,77.6,47.3,79.2,40.5,79.2z M16.6,27.8c-4.3,0-8.6,3-10.6,7.3c-0.4,0.8-8.3,19.1,10.3,34.6c17.4,14.4,37.4,6.2,37.6,6.1
					c1.9-1,7.1-4.7,7.9-10.3c0.4-2.9-0.4-5.9-2.3-8.2c-1.7-2.1-4.1-3.3-6.7-3.3c-2.4-0.1-4.6,0.8-6.7,2.5c-0.1,0.1-4.2,4.3-1.2,9.8
					c0.1,0.1,0.1,0.3,0,0.4c-0.1,0.1-0.2,0.2-0.3,0.3c-0.2,0-23.1,4.2-28-18.9c0-0.1,0-0.3,0.1-0.4c0.1-0.1,0.2-0.2,0.3-0.2
					c0.1,0,6.3-0.7,8.7-4.6c1.3-2.1,1.2-4.7-0.1-7.9c-1.9-4.6-5.1-7.2-9.1-7.3C16.7,27.8,16.6,27.8,16.6,27.8z"/>
			</g>
			<g>
				<path class="st2" d="M24.3,41.1c-2.6,0-4.7-0.7-6.4-2.2c-4.2-3.7-4-10.5-4-10.8c0-0.3,0.3-0.5,0.5-0.5c0.3,0,0.5,0.2,0.5,0.5
					c0,0.1-0.2,6.7,3.7,10c2.1,1.8,4.9,2.3,8.5,1.7c0.3-0.1,0.5,0.1,0.6,0.4c0,0.3-0.1,0.5-0.4,0.6C26.3,41,25.3,41.1,24.3,41.1z"/>
			</g>
			<g>
				<path class="st2" d="M57.7,63.6c-9.7,0-12.2-7.2-12.3-7.3c-0.1-0.3,0.1-0.5,0.3-0.6c0.3-0.1,0.5,0.1,0.6,0.3
					c0.1,0.4,3.2,8.8,16,6.1c0.3-0.1,0.5,0.1,0.6,0.4c0.1,0.3-0.1,0.5-0.4,0.6C60.8,63.5,59.1,63.6,57.7,63.6z"/>
			</g>
		</g>
		<g>
			<path class="st2" d="M29,35.7c-0.1,0-0.2,0-0.3-0.1c-0.1-0.1-0.2-0.2-0.2-0.4c0-0.3-0.3-6.5-9-9.8c-0.2-0.1-0.3-0.3-0.3-0.5
				l1.1-8.5c0-0.2,0.2-0.4,0.4-0.4c0.2,0,0.4,0,0.5,0.2l2.5,3.8l4.6-5.6c0.1-0.2,0.3-0.2,0.5-0.2c0.2,0.1,0.3,0.2,0.3,0.4l0.3,7
				l6.2-2.2c0.2-0.1,0.4,0,0.5,0.1c0.1,0.1,0.2,0.4,0.1,0.5L33,26.2l4.9,1c0.2,0,0.3,0.2,0.4,0.4c0,0.2,0,0.4-0.2,0.5l-4.6,3.5
				l3.5,1.7c0.2,0.1,0.3,0.3,0.3,0.5s-0.2,0.4-0.4,0.4L29,35.7C29.1,35.7,29.1,35.7,29,35.7z M20.2,24.6c7.6,3.1,9,8.3,9.2,10
				l5.8-1.1l-2.9-1.4C32.1,32,32,31.9,32,31.7c0-0.2,0.1-0.3,0.2-0.4l4.4-3.3l-4.5-1c-0.1,0-0.3-0.1-0.3-0.3c0-0.2-0.1-0.3,0-0.4
				l2.9-5.7l-5.7,2c-0.1,0.1-0.3,0-0.4-0.1s-0.2-0.2-0.2-0.4L28.2,16L24,21.1c-0.1,0.1-0.2,0.2-0.4,0.2c-0.2,0-0.3-0.1-0.4-0.2
				l-2.1-3.2L20.2,24.6z"/>
		</g>
	</g>
	<g>
		<g>
			<circle class="st2" cx="18.5" cy="30.2" r="0.5"/>
		</g>
		<g>
			<circle class="st2" cx="19.3" cy="35.3" r="0.5"/>
		</g>
		<g>
			<circle class="st2" cx="22.8" cy="33" r="0.5"/>
		</g>
		<g>
			<circle class="st2" cx="23.6" cy="37.2" r="0.5"/>
		</g>
	</g>
	<g>
		<g>
			<circle class="st2" cx="50.6" cy="56.4" r="0.5"/>
		</g>
		<g>
			<circle class="st2" cx="53.9" cy="60.4" r="0.5"/>
		</g>
		<g>
			<circle class="st2" cx="55.8" cy="56.6" r="0.5"/>
		</g>
		<g>
			<circle class="st2" cx="58.6" cy="59.9" r="0.5"/>
		</g>
	</g>
	<g>
		<path class="st2" d="M99.8,91.7c-0.8,0-1.6-0.2-2.1-0.4c-0.2-0.1-0.4-0.1-0.5-0.1c-0.3,0.1-0.5-0.1-0.6-0.4s0.1-0.5,0.4-0.6
			c0.2-0.1,0.5,0,1,0.2c1.3,0.4,2.7,0.7,3.2-0.5c1-2.1-0.3-6.4-1.1-7.7c-1-1.9-2.7-3.4-4.6-4.1c0,0.5,0,1,0,1.5
			c-0.1,1-0.8,4.4-3.4,5c-1.1,0.2-2.3,0-3.3-0.6c-0.9-0.6-1.5-1.4-1.7-2.3c-0.5-2.2,1.8-4,3-4.6c1.4-0.7,2.8-0.5,3.5-0.5
			c0.2,0,0.4,0,0.5,0.1c-0.5-1.5-1.5-2.9-3-4.2c-0.3-0.2-0.7-0.6-1.2-1c0,0.7-0.1,1.3-0.2,1.8c-0.4,1.5-1.9,4.3-4.5,4.3
			c-1.5,0-3.1-1-3.8-2.4c-0.8-1.9,0.2-4,1.5-5c1.5-1.1,3.2-0.9,4.2-0.7c0.5,0.1,0.9,0.2,1.4,0.3c0-1-0.5-1.8-1.3-2.8
			c-2.4-2.9-6.1-3.2-7.5-3.2c-1.2,0-2.1,0.1-3,0.4c0.8,0.7,1.7,1.8,1.8,3.3c0,0.1,0.3,3.1-2,4.2c-1.5,0.8-3.5,0.4-4.4-0.9
			c-1.5-1.9,0.2-4.6,0.4-4.9c0.4-0.6,1.1-1.3,2.1-1.9c-0.8-0.4-2.4-0.9-4.8-0.7c-3.6,0.3-5.3,2.4-6.6,4.1c-0.4,0.5-0.8,1-1.2,1.4
			c-0.2,0.2-0.5,0.2-0.7,0c-0.2-0.2-0.2-0.5,0-0.7c0.4-0.3,0.7-0.8,1.1-1.3c1.4-1.7,3.3-4.1,7.3-4.5c3.2-0.3,5,0.5,5.8,1
			c0.1,0,0.1,0.1,0.2,0.1c1-0.4,2.3-0.6,3.9-0.6s5.6,0.3,8.3,3.6c1.1,1.4,1.7,2.6,2,3.7c1,0.5,1.7,1.2,2.1,1.5
			c1.8,1.6,2.9,3.4,3.4,5.2c2.3,0.7,4.4,2.5,5.6,4.8c0.6,1.1,2.3,5.9,1.1,8.6C101.6,91.4,100.7,91.7,99.8,91.7z M92.8,77.5
			c-0.6,0-1.3,0.1-2,0.4c-1.2,0.6-2.8,2-2.5,3.5c0.1,0.6,0.6,1.2,1.2,1.7c0.8,0.5,1.8,0.7,2.5,0.5c2-0.5,2.5-3.3,2.6-4.2
			c0.1-0.6,0.1-1.2,0-1.7c-0.3-0.1-0.6-0.1-0.9-0.2C93.4,77.5,93.1,77.5,92.8,77.5z M86,70.2c-0.7,0-1.5,0.1-2.2,0.7
			c-1.1,0.8-1.9,2.4-1.2,3.9c0.5,1.2,1.8,1.8,2.8,1.8l0,0c1.9,0,3.2-2.2,3.6-3.6c0.2-0.6,0.2-1.3,0.1-2.2c-0.5-0.2-1.1-0.4-1.8-0.5
			C86.9,70.2,86.4,70.2,86,70.2z M75.6,64.5c-1.2,0.5-1.8,1.2-2.2,1.8c-0.1,0.1-1.5,2.4-0.5,3.8c0.7,0.9,2.2,1.1,3.2,0.6
			c1.7-0.8,1.4-3.1,1.4-3.2C77.5,66.1,76.4,65.1,75.6,64.5z"/>
	</g>
</g>
</svg>
