<?xml version="1.0" encoding="utf-8"?>
<!-- Generator: Adobe Illustrator 27.1.1, SVG Export Plug-In . SVG Version: 6.00 Build 0)  -->
<svg version="1.1" id="Layer_1" xmlns="http://www.w3.org/2000/svg" xmlns:xlink="http://www.w3.org/1999/xlink" x="0px" y="0px"
	 viewBox="0 0 105.2 94.3" style="enable-background:new 0 0 105.2 94.3;" xml:space="preserve">
<style type="text/css">
	.st0{fill:#DA6672;}
	.st1{fill:#FFCC00;}
	.st2{fill:#0A0700;}
</style>
<g>
	<g>
		<polygon class="st0" points="41.5,76.6 61.3,76.6 61.3,83.9 40.8,83.4 		"/>
	</g>
	<g>
		<path class="st1" d="M42.6,75.7H59c0,0,3,0.8,2.8-2.1c-0.2-2.8,0.8-13.2,3.8-16.9c3-3.9,5-5.6,5-5.6s5.9-6.5,6.9-12.5
			c1-6.1-0.4-21.7-10.6-26.1s-13.2-7.7-30.6-1.3c0,0-9,5.3-11.1,11.6s-4,12.6-0.7,19.8s12.8,15.2,12.8,15.2s3,5.6,3.3,8.3
			c0.3,2.8,0.6,6.2,0.6,7S40.9,74.9,42.6,75.7z"/>
	</g>
	<g>
		<g>
			<g>
				<path class="st2" d="M60.1,76.2H42.6c-0.7,0-1.2-0.2-1.7-0.8c-0.4-0.4-0.6-1-0.6-1.7c0.1-1.2,0.2-3.6-0.4-8
					c-0.2-1.9-1.1-4.1-2.5-6.9c-0.9-1.8-2.3-3.3-4.2-4.6C25.7,48.9,21.5,40.4,22,31.6c0.8-13.4,12.6-24.3,26.9-25
					c8.1-0.1,15.8,2.8,21.5,8.1c5.2,5,8.1,11.6,8.1,18.7c0,7.4-3.3,14.6-9.2,19.6c-1.7,1.4-2.9,3-3.6,4.8c-1.4,3.1-2.4,5.8-2.9,7.9
					c-0.9,3.9-0.8,6.6-0.4,8.3c0.1,0.6-0.1,1.2-0.4,1.7C61.4,76,60.8,76.2,60.1,76.2z M50.2,7.9c-0.4,0-0.9,0-1.3,0
					C35.3,8.4,23.9,19,23.1,31.8c-0.6,8.5,3.4,16.6,10.7,21.8c2,1.4,3.5,3.1,4.5,5.1c1.4,2.9,2.3,5.3,2.7,7.2
					c0.6,3.5,0.7,6.3,0.4,8.2c0,0.2,0,0.6,0.2,0.8c0.2,0.2,0.4,0.3,0.8,0.3h17.6c0.3,0,0.7-0.1,0.8-0.3c0.2-0.2,0.2-0.4,0.2-0.8
					c-0.3-1.8-0.4-4.8,0.4-8.7c0.4-2.1,1.5-5,3-8.1c0.9-1.9,2.2-3.6,4-5.1c5.5-4.8,8.7-11.6,8.7-18.7c0-6.7-2.8-13-7.7-17.8
					C64.5,10.7,57.5,7.9,50.2,7.9z"/>
			</g>
			<g>
				<path class="st2" d="M59.1,84.5c-2.5,0-7.7-0.1-18.2-0.6c-0.1,0-0.3-0.1-0.4-0.2c-0.1-0.1-0.1-0.2-0.1-0.4l0.2-6.9
					c0-0.3,0.2-0.6,0.6-0.6h20.2c0.3,0,0.6,0.2,0.6,0.6v7.4c0,0.1-0.1,0.3-0.2,0.4C61.6,84.4,61.5,84.5,59.1,84.5z M41.5,82.9
					c7.1,0.2,17,0.6,19.2,0.4v-6.2h-19L41.5,82.9z"/>
			</g>
			<g>
				<path class="st2" d="M50.8,91.2L50.8,91.2c-0.3,0-0.6-0.3-0.6-0.7l1-15.3L40,32.9c-0.1-0.2,0.1-0.6,0.3-0.7
					c0.2-0.1,0.6,0,0.7,0.1c0.7,0.8,2.5,2.9,3.9,3c0.9,0.1,1.1-0.2,1.7-1c0.2-0.3,0.6-0.8,1-1.2c1.4-1.4,4.2-1.8,5.5-1.1
					c0.7,0.3,1,1,1.4,1.7c0.3,0.6,0.7,1.1,1,1.1c0.6,0,3.1-1.5,5.2-3.1c0.2-0.1,0.4-0.1,0.7,0c0.2,0.1,0.3,0.3,0.2,0.6l-9.2,42.9
					l-1,15.5C51.3,90.9,51.1,91.2,50.8,91.2z M41.8,34.9l10,37.9l8.3-39c-1.5,1-3.6,2.4-4.6,2.4s-1.5-0.9-2-1.7
					c-0.3-0.6-0.7-1.1-1-1.2c-0.9-0.4-3.2-0.2-4.2,0.9c-0.3,0.3-0.6,0.7-0.8,1c-0.6,0.8-1.1,1.7-2.7,1.5
					C43.8,36.4,42.7,35.6,41.8,34.9z"/>
			</g>
		</g>
		<g>
			<path class="st2" d="M84.6,48.9c-0.1,0-0.1,0-0.2,0L77.6,46c-0.3-0.1-0.4-0.4-0.3-0.8c0.1-0.3,0.4-0.4,0.8-0.3l6.7,2.9
				c0.3,0.1,0.4,0.4,0.3,0.8C85.1,48.8,84.8,48.9,84.6,48.9z"/>
		</g>
		<g>
			<path class="st2" d="M80.1,32.4c-0.3,0-0.6-0.2-0.6-0.6s0.2-0.6,0.6-0.7l9.1-0.7c0.3,0,0.6,0.2,0.7,0.6c0,0.3-0.2,0.6-0.6,0.7
				L80.1,32.4L80.1,32.4z"/>
		</g>
		<g>
			<path class="st2" d="M76,18c-0.2,0-0.3-0.1-0.4-0.2c-0.2-0.2-0.1-0.7,0.1-0.8l6-4.3c0.2-0.2,0.7-0.1,0.8,0.1
				c0.2,0.2,0.1,0.7-0.1,0.8l-6,4.3C76.2,18,76.1,18,76,18z"/>
		</g>
		<g>
			<path class="st2" d="M23.1,20.3c-0.1,0-0.1,0-0.2,0L17.4,18c-0.3-0.1-0.4-0.4-0.3-0.8c0.1-0.3,0.4-0.4,0.8-0.3l5.5,2.3
				c0.3,0.1,0.4,0.4,0.3,0.8C23.6,20.2,23.3,20.3,23.1,20.3z"/>
		</g>
		<g>
			<path class="st2" d="M13.6,32.1c-0.3,0-0.6-0.2-0.6-0.6c0-0.3,0.2-0.6,0.6-0.6l6.7-0.3c0.3,0,0.6,0.2,0.6,0.6
				c0,0.3-0.2,0.6-0.6,0.6L13.6,32.1L13.6,32.1z"/>
		</g>
		<g>
			<path class="st2" d="M17.6,51c-0.1,0-0.3-0.1-0.4-0.2c-0.2-0.2-0.2-0.6,0-0.8l5.5-5c0.2-0.2,0.6-0.2,0.8,0c0.2,0.2,0.2,0.6,0,0.8
				l-5.5,5C17.8,50.9,17.7,51,17.6,51z"/>
		</g>
	</g>
</g>
</svg>
