<?xml version="1.0" encoding="utf-8"?>
<!-- Generator: Adobe Illustrator 27.1.1, SVG Export Plug-In . SVG Version: 6.00 Build 0)  -->
<svg version="1.1" id="Layer_1" xmlns="http://www.w3.org/2000/svg" xmlns:xlink="http://www.w3.org/1999/xlink" x="0px" y="0px"
	 viewBox="0 0 105.2 94.3" style="enable-background:new 0 0 105.2 94.3;" xml:space="preserve">
<style type="text/css">
	.st0{fill:#FFCC00;}
	.st1{fill:#DA6672;}
	.st2{fill:#602C86;}
	.st3{fill:#0A0700;}
</style>
<g>
	<g>
		<g>
			<polygon class="st0" points="46.8,23.7 9.9,66.5 7.4,83.9 24.7,79.2 61.1,39 			"/>
		</g>
		<g>
			<polygon class="st1" points="9.9,66.5 14.6,69.9 50.5,28 46.6,23.9 			"/>
		</g>
		<g>
			<polygon class="st2" points="15,69.9 19.6,73.8 56.5,34.2 50.5,28 			"/>
		</g>
		<g>
			<polygon class="st1" points="19.9,74 24.7,78.9 61.1,39 56.5,34.2 			"/>
		</g>
		<g>
			<polygon class="st0" points="46.6,23.7 61.1,38.6 68.8,30.8 52.7,16.6 			"/>
		</g>
	</g>
	<g>
		<g>
			<g>
				<path class="st3" d="M13.7,82.4c-0.1,0-0.2,0-0.3-0.1l-5.1-4.1c-0.1-0.1-0.2-0.3-0.2-0.5l1.3-11.3c0-0.1,0.1-0.2,0.1-0.3
					l42.8-49.8c0.1-0.1,0.2-0.2,0.4-0.2c0.1,0,0.3,0,0.4,0.1l16.1,14.2c0.1,0.1,0.2,0.2,0.2,0.4c0,0.1,0,0.3-0.1,0.4L25.1,79.5
					c-0.1,0.1-0.2,0.1-0.3,0.2L13.7,82.4L13.7,82.4z M9.2,77.6l4.6,3.7l10.6-2.6L68,30.9L52.8,17.4L10.4,66.7L9.2,77.6z"/>
			</g>
			<g>
				<path class="st3" d="M61.3,39.6c-0.1,0-0.3-0.1-0.4-0.2L46.3,24c-0.2-0.2-0.2-0.5,0-0.7c0.2-0.2,0.5-0.2,0.7,0l14.6,15.5
					c0.2,0.2,0.2,0.5,0,0.7C61.5,39.6,61.4,39.6,61.3,39.6z"/>
			</g>
		</g>
		<g>
			<g>
				<polygon class="st3" points="8.5,77.7 13.8,82 6.1,85.5 				"/>
				<path class="st3" d="M6.1,86c-0.1,0-0.2,0-0.3-0.1c-0.2-0.1-0.2-0.3-0.2-0.5L8,77.5c0-0.2,0.2-0.3,0.3-0.3
					c0.2-0.1,0.3,0,0.5,0.1l5.3,4.3c0.1,0.1,0.2,0.3,0.2,0.5s-0.1,0.3-0.3,0.4L6.3,86C6.3,86,6.2,86,6.1,86z M8.8,78.6l-1.8,6
					l5.9-2.7L8.8,78.6z"/>
			</g>
			<g>
				<path class="st3" d="M15,70.3c-0.1,0-0.2,0-0.3-0.1c-0.2-0.2-0.2-0.5-0.1-0.7l35.5-41.8c0.2-0.2,0.5-0.2,0.7-0.1
					c0.2,0.2,0.2,0.5,0.1,0.7L15.4,70.1C15.3,70.3,15.1,70.3,15,70.3z"/>
			</g>
			<g>
				<path class="st3" d="M19.6,74.3c-0.1,0-0.3,0-0.4-0.1c-0.2-0.2-0.2-0.5,0-0.7L56.1,34c0.2-0.2,0.5-0.2,0.7,0s0.2,0.5,0,0.7
					L20,74.1C19.9,74.2,19.7,74.3,19.6,74.3z"/>
			</g>
			<g>
				<path class="st3" d="M24.7,79.7c-0.2,0-0.3-0.1-0.4-0.2C21.5,75.3,9.7,67,9.6,67c-0.2-0.2-0.3-0.5-0.1-0.7
					c0.2-0.2,0.5-0.3,0.7-0.1c0.5,0.3,12.1,8.4,15,12.8c0.2,0.2,0.1,0.6-0.1,0.7C24.9,79.7,24.8,79.7,24.7,79.7z"/>
			</g>
		</g>
	</g>
	<g>
		<path class="st3" d="M96.8,90.8c-1.2,0-2.6-0.5-3.4-1.5c-0.2-0.2-0.2-0.5,0.1-0.7c0.2-0.2,0.5-0.2,0.7,0.1c0.9,1.1,2.7,1.3,3.5,1
			c1-0.4,1.2-1,1.2-1.4c0.2-1.3-0.8-3-1.9-4c-0.9-0.9-2.1-1.3-6.3-1.1c-3.7,0.2-6.6,0.7-9.3,1.2l-1.9,0.4c-5.4,1.1-7.8,1.6-9.6,0.1
			c-1.1-0.9-1.1-2.6-0.7-3.3c0.5-0.8,1.6-0.9,3.4-1.1c0.7-0.1,1.5-0.1,2.3-0.3c3.6-0.5,5.4-1.1,5.3-1.6c0-0.3-0.4-0.8-2.2-1.5
			c-3.6-1.4-6.8-0.8-14.5,0.5l-1.1,0.2c-5.1,0.9-6.9,1.3-8.5-0.1c-0.8-0.6-1.7-1.7-2.2-2.9c-1.1-0.1-1.8,0.1-2.5,0.3
			c-0.9,0.3-1.9,0.6-3.6,0c-5-1.6-10.7-0.7-11.3,1.1c-0.2,0.5,0.1,1.5,0.6,1.9c0.6,0.6,1.7,0.5,2.9,0.5c0.7,0,1.4,0,2,0.1
			c1,0.1,2,0.7,2.6,1.5c0.4,0.5,0.5,1.1,0.4,1.6c-1.1,4.8-8.2,4.5-11.2,4.3c-0.3,0-0.6,0-0.8,0h-1.5c-5.9-0.1-12.5-0.2-22.9,0.1l0,0
			c-0.3,0-0.5-0.2-0.5-0.5s0.2-0.5,0.5-0.5c10.3-0.3,17-0.2,22.9-0.1h1.5c0.2,0,0.5,0,0.8,0c2.8,0.1,9.3,0.4,10.2-3.5
			c0.1-0.3-0.1-0.6-0.2-0.8c-0.4-0.5-1.1-0.9-1.8-1c-0.6-0.1-1.2-0.1-1.9-0.1c-1.3,0-2.6,0.1-3.6-0.8c-0.8-0.7-1.2-2.1-0.9-3
			c0.9-2.6,7.3-3.5,12.6-1.8c1.4,0.5,2.1,0.2,3,0c0.7-0.2,1.4-0.4,2.5-0.4c-0.2-0.8-0.1-1.7,0.2-2.5c0.9-2.1,3.3-2.7,4-2.8
			c0.7-0.1,2.9-0.5,4.2,1c1.1,1.2,1.2,3.3,0.3,4.6c-1.4,2-5,1.4-7,1c0.4,0.8,1,1.5,1.6,1.9c1.3,1,2.7,0.7,7.7-0.2l1.1-0.2
			c7.7-1.4,11.2-1.9,15-0.5c0.9,0.4,2.9,1.1,2.9,2.4c0,1.7-2.8,2.2-6.2,2.7c-0.9,0.1-1.7,0.2-2.4,0.3c-1.3,0.1-2.4,0.2-2.6,0.6
			s-0.3,1.4,0.5,2c1.3,1.1,3.8,0.6,8.7-0.4l1.9-0.4c2.7-0.5,5.7-1.1,9.5-1.3c4.1-0.2,5.9,0.1,7.1,1.4c1.1,1.2,2.4,3.2,2.1,4.9
			c-0.1,1-0.7,1.7-1.8,2.2C97.7,90.7,97.2,90.8,96.8,90.8z M52.5,73.8c0.1,0,0.2,0,0.3,0.1c1.7,0.4,5.3,1.1,6.4-0.5
			c0.6-0.9,0.5-2.4-0.2-3.3c-0.9-1.1-2.6-0.8-3.2-0.7c-0.4,0.1-2.5,0.5-3.2,2.2C52.2,72.3,52.2,73.1,52.5,73.8z"/>
	</g>
</g>
</svg>
