<?xml version="1.0" encoding="utf-8"?>
<!-- Generator: Adobe Illustrator 27.1.1, SVG Export Plug-In . SVG Version: 6.00 Build 0)  -->
<svg version="1.1" id="Layer_1" xmlns="http://www.w3.org/2000/svg" xmlns:xlink="http://www.w3.org/1999/xlink" x="0px" y="0px"
	 viewBox="0 0 105.2 94.3" style="enable-background:new 0 0 105.2 94.3;" xml:space="preserve">
<style type="text/css">
	.st0{fill:#FFCC00;}
	.st1{fill:#DA6672;}
	.st2{fill:#0A0700;}
</style>
<g>
	<g>
		<path class="st0" d="M63.5,80.5c0,0,1.5,0.6,2-0.9s1.7-2.2,2.1-0.7s1.8,5.7,3,4s2.1-2.2,2.1-2.2l6.2,10l6.4-9.7V67.4
			c0,0,2.8-1.6,3.2-1.9c0.4-0.3,6.2-5.9,6.2-5.9s3.5-3.3,3-5.2s-2.4-3.4-3.6-3.3c-1.4,0.1-9.1,2-9.1,2l-0.2-8.7l1.9-15
			c0,0-0.2-2.8-1.5-3.2c-1.3-0.4-4.1-0.4-4.6,1.3C80.2,29.4,77.6,39,77.6,39s-0.9-2.5-3.1-2.2c-2.1,0.2-4,2.1-4,2.1l-1.9-0.3
			c0,0-2.1,0.6-3.3,1.6c-1.2,0.9-1.8,2-1.8,2L58.4,33c0,0-1.8-1.6-3.4-1c-1.6,0.6-1.8,2.4-1.5,3.4s3.3,12.2,3.3,12.2v10.2
			c0,0-0.3,3.6,0.9,5.6c1.2,1.9,3.1,4.5,4.8,5.7l0.2,11.5H63.5z"/>
	</g>
	<g>
		<path class="st1" d="M17,89.4h6.7c0,0,1.8,0.2,2.2-1.9c0.5-2.1,1.6-4.2,2.9-3.3c1.3,0.9,3.2,3.7,4.3,1.2s0-4.5,1.9-4.4
			c2,0.1,3.4,0.1,3.4-2.2c0-2.4-0.3-14-0.3-14l6.3-4.4l6.1-6.2c0,0,1.9-3.3,0-5.5c-1.9-2-4.7-1-6-0.9c-1.3,0-6,1.6-6,1.6l0.1-9.5
			L40.7,24c0,0,0-2.9-2-3.4c-2-0.5-3.4,0.4-4.1,1.6c-0.6,1.4-3,12.3-3,12.3s-1.1-2.5-2.5-2.4c-1.3,0.1-4.5,1-4.9,2.2
			c0,0-2.1-0.5-3,0c-1,0.5-2.8,2.2-3.1,2.8c-0.3,0.5-1,0.9-1,0.9L12,27.8c0,0-3-1.6-4.2,0.1s-0.6,3.7,0,4.8c0.6,1.1,3.2,11,3.2,11
			l-0.6,3.3l0.2,8c0,0-0.1,3.6,0.6,4.7s3,4.5,3,4.5l2.2,1.8l0.4,0.9v22.4H17z"/>
	</g>
	<g>
		<g>
			<g>
				<path class="st2" d="M17,89.9c-0.3,0-0.5-0.2-0.5-0.5V66.8c-1.2-0.9-6.3-4.9-6.3-10.1V43.7L6.8,30.4c-0.4-1.6,0.4-3.3,2-3.9
					c1.6-0.5,3.3,0.1,4.1,1.7l4.9,9.4c0.1,0.2,0,0.5-0.2,0.6c-0.2,0.1-0.5,0-0.6-0.2L12,28.7c-0.5-1.1-1.7-1.6-2.9-1.2
					c-1.1,0.4-1.7,1.6-1.4,2.7l3.5,13.4v13.1c0,5.2,6,9.4,6.1,9.4c0.1,0.1,0.2,0.2,0.2,0.4v22.9C17.5,89.7,17.2,89.9,17,89.9z"/>
			</g>
			<g>
				<path class="st2" d="M39,89.9c-0.3,0-0.5-0.2-0.5-0.5l-0.5-24.7c0-0.2,0.1-0.4,0.3-0.4c4.2-1.7,9.4-7.3,12.2-10.4
					c1.1-1.2,1.2-2.8,0.4-4.2c-0.7-1.4-2.5-2.1-4-1.7l-7.7,2c-0.1,0-0.3,0-0.4-0.1c-0.1-0.1-0.2-0.2-0.2-0.4l-0.2-9l2-16.4
					c0.2-1.4-0.7-2.7-2-3c-1.5-0.3-2.9,0.5-3.3,2l-2.9,11.5c-0.1,0.2-0.3,0.4-0.6,0.3c-0.2-0.1-0.4-0.3-0.3-0.6l2.9-11.5
					c0.5-1.9,2.6-3.2,4.5-2.7c1.8,0.4,3,2.2,2.8,4.1l-1.9,16.3l0.2,8.4l7.2-1.8c2-0.5,4.1,0.4,5.1,2.1c1,1.7,0.7,3.9-0.5,5.2
					c-2.8,3.1-8,8.7-12.3,10.6l0.5,24.4C39.4,89.7,39.2,89.9,39,89.9L39,89.9z"/>
			</g>
			<g>
				<path class="st2" d="M21.5,47.2L21.5,47.2c-1.1,0-2-0.5-2.8-1.5c-2.8-3.4-2.8-7.6,0-10.3c2.7-2.6,4.3-2,5.2-1.7l0.3,0.1
					c0.2,0.1,0.4,0.3,0.3,0.6c-0.1,0.3-0.3,0.4-0.6,0.3c-0.1,0-0.2-0.1-0.3-0.1c-0.9-0.3-2-0.6-4.3,1.5c-2.5,2.2-2.4,5.9,0,8.9
					c0.6,0.7,1.3,1.1,1.9,1.2c0,0,0,0,0.1,0c1.3,0,2.4-1.2,2.4-1.2c0.2-0.2,0.5-0.2,0.7,0c0.2,0.2,0.2,0.5,0,0.7
					C24.5,45.8,23.2,47.2,21.5,47.2z"/>
			</g>
			<g>
				<path class="st2" d="M27.6,48.4c-0.6,0-1.3-0.2-1.9-0.5c-1.4-0.9-2.4-2.7-2.4-4.4v-1c0-4.2,0-8.4,1.6-9.5c1.4-1,3.3-1.9,4.9-1.2
					c1.2,0.4,1.8,1.6,2.1,3.5v0.1c0,1.2,0,11.1-2.9,12.6C28.7,48.3,28.2,48.4,27.6,48.4z M28.7,32.5c-1.2,0-2.5,0.7-3.2,1.3
					c-1.3,0.9-1.3,6.1-1.2,8.7v1c0,1.4,0.7,2.9,1.9,3.5c0.5,0.3,1.5,0.6,2.6,0.1c1.7-0.9,2.4-7.6,2.4-11.7c-0.2-1.5-0.7-2.4-1.6-2.8
					C29.2,32.5,29,32.5,28.7,32.5z"/>
			</g>
			<g>
				<path class="st2" d="M28.8,64.3c-0.2,0-0.4-0.2-0.5-0.4c-1.9-10.6,4.1-13.9,4.4-14c0.2-0.1,0.5,0,0.6,0.2c0.1,0.2,0,0.5-0.2,0.6
					c-0.2,0.1-5.7,3.1-3.9,13C29.3,64,29.1,64.2,28.8,64.3C28.9,64.3,28.8,64.3,28.8,64.3z"/>
			</g>
			<g>
				<path class="st2" d="M13.6,43.7c-0.2,0-0.3-0.1-0.4-0.3c-0.1-0.2,0-0.5,0.2-0.6c0.3-0.1,2.7-1.2,4.3-0.6
					c0.2,0.1,0.4,0.3,0.3,0.6c-0.1,0.2-0.3,0.4-0.6,0.3c-1-0.3-2.9,0.3-3.5,0.6C13.7,43.7,13.7,43.7,13.6,43.7z"/>
			</g>
			<g>
				<path class="st2" d="M35.3,41.9c-0.1,0-0.2,0-0.2-0.1c-0.9-0.5-2.9-0.4-3.6-0.3c-0.2,0-0.5-0.1-0.5-0.4c0-0.3,0.1-0.5,0.4-0.5
					c0.3,0,2.9-0.4,4.3,0.4c0.2,0.1,0.3,0.4,0.1,0.6C35.7,41.7,35.4,41.9,35.3,41.9z"/>
			</g>
		</g>
		<g>
			<g>
				<path class="st2" d="M62.4,81.4c-0.2,0-0.4-0.2-0.4-0.4V69.3c-1.1-0.7-5.7-4.6-5.7-9.5V47.6l-3.4-12.5c-0.4-1.6,0.4-3.1,2-3.6
					c1.6-0.5,3.3,0.1,4.1,1.6l4.9,8.8c0.1,0.2,0,0.5-0.2,0.6s-0.5,0-0.6-0.2l-4.9-8.9c-0.5-1.1-1.7-1.5-2.9-1.1
					c-1.1,0.3-1.7,1.5-1.4,2.6l3.4,12.6v0.1v12.2c0,4.9,5.5,8.8,5.5,8.9c0.1,0.1,0.2,0.2,0.2,0.4v11.8C63,81.1,62.7,81.4,62.4,81.4z
					"/>
			</g>
			<g>
				<path class="st2" d="M85.4,91.1c-0.2,0-0.4-0.2-0.4-0.4V67.5c0-0.2,0.1-0.4,0.3-0.4c3.4-1.4,7.2-5.5,9.8-8.4
					c0.5-0.5,1-1.1,1.4-1.5c1-1.1,1.2-2.6,0.4-3.9c-0.7-1.3-2.5-1.9-4.1-1.6l-7.8,1.7c-0.1,0-0.3,0-0.4-0.1
					c-0.1-0.1-0.2-0.2-0.2-0.3l-0.2-8.5l2-15.4c0.2-1.3-0.7-2.5-2-2.8c-1.5-0.3-3,0.5-3.3,1.8l-2.9,10.8c-0.1,0.2-0.3,0.4-0.5,0.3
					c-0.2-0.1-0.4-0.3-0.3-0.5L80.1,28c0.5-1.8,2.5-3,4.5-2.6c1.8,0.4,3,2,2.8,3.9l-1.9,15.3l0.2,7.8l7.2-1.7c1.9-0.4,4.1,0.3,5,2
					c1,1.6,0.7,3.6-0.5,5c-0.4,0.4-0.9,1-1.4,1.5c-2.7,3-6.3,7-10,8.5v22.8C85.9,90.9,85.7,91.1,85.4,91.1L85.4,91.1z"/>
			</g>
			<g>
				<path class="st2" d="M67.6,51L67.6,51c-1.1,0-1.9-0.5-2.8-1.4c-2.8-3.2-2.8-7.3,0-9.6c2.7-2.4,4.3-1.9,5.2-1.6l0.3,0.1
					c0.2,0.1,0.4,0.3,0.3,0.5c-0.1,0.2-0.3,0.4-0.5,0.3c-0.1,0-0.2-0.1-0.3-0.1c-1-0.3-2-0.6-4.4,1.4c-2.4,2.1-2.4,5.6,0,8.4
					c0.6,0.6,1.3,1.1,1.9,1.1c1.3,0,2.5-1.1,2.5-1.1c0.2-0.2,0.5-0.2,0.6,0c0.2,0.2,0.2,0.5,0,0.6C70.6,49.6,69.3,51,67.6,51z"/>
			</g>
			<g>
				<path class="st2" d="M73.7,52c-0.6,0-1.4-0.2-2-0.6c-1.4-0.9-2.2-2.5-2.2-4.1v-0.9c0-4,0-7.9,1.6-8.9c1.4-0.9,3.4-1.8,4.9-1.1
					c1.1,0.4,1.8,1.6,2.1,3.3v0.1c0,1.1,0,10.5-2.9,11.9C74.7,51.9,74.2,52,73.7,52z M74.7,37.1c-1.2,0-2.5,0.7-3.2,1.2
					c-1.3,0.9-1.3,5.8-1.2,8.1v0.9c0,1.3,0.7,2.6,1.8,3.2c0.6,0.4,1.5,0.7,2.7,0.2c1.7-0.9,2.4-7.2,2.4-10.9
					c-0.2-1.4-0.7-2.2-1.5-2.6C75.4,37.1,75.1,37.1,74.7,37.1z"/>
			</g>
			<g>
				<path class="st2" d="M74.8,67c-0.2,0-0.4-0.1-0.4-0.4c-1.9-10,4.3-13.2,4.4-13.3c0.2-0.1,0.5,0,0.6,0.2c0.1,0.2,0,0.5-0.2,0.6
					c-0.2,0.1-5.7,2.9-3.9,12.2C75.4,66.7,75.2,67,74.8,67C75,67,74.8,67,74.8,67z"/>
			</g>
			<g>
				<path class="st2" d="M59.6,47.6c-0.2,0-0.3-0.1-0.4-0.3c-0.1-0.2,0-0.5,0.2-0.6c0.3-0.1,2.7-1.1,4.2-0.6
					c0.2,0.1,0.4,0.3,0.3,0.6c-0.1,0.2-0.3,0.4-0.6,0.3c-1-0.3-2.9,0.3-3.5,0.5C59.7,47.5,59.6,47.6,59.6,47.6z"/>
			</g>
			<g>
				<path class="st2" d="M81.4,45.9c-0.1,0-0.2,0-0.2-0.1c-0.9-0.5-2.9-0.3-3.6-0.2c-0.3,0-0.5-0.1-0.5-0.4c0-0.2,0.1-0.5,0.4-0.5
					c0.3,0,2.9-0.4,4.3,0.4c0.2,0.1,0.3,0.4,0.2,0.6C81.7,45.8,81.5,45.9,81.4,45.9z"/>
			</g>
		</g>
	</g>
</g>
</svg>
